# xmcd CD database file
#
# Track frame offsets:
#	183
#	23995
#	52058
#	81858
#	102020
#	134920
#	157308
#	179095
#
# Disc length: 4616 seconds
#
# Revision: 2
# Processed by: cddbd v1.5.2PL0 Copyright (c) Steve Scherf et al.
# Submitted via: CDex 1.51
#
DISCID=76120608
DTITLE=Ornette Coleman - Vol. 214 - Free Jazz
DYEAR=1960
DGENRE=Jazz
TTITLE0=Little Symphony
TTITLE1=Rise and Shine
TTITLE2=Kaleidoscope
TTITLE3=Revolving Doors
TTITLE4=The Legend of Bebop
TTITLE5=Embraceable you
TTITLE6=Folk Tale
TTITLE7=Free Jazz
EXTD=YEAR: 1960
EXTT0=
EXTT1=
EXTT2=
EXTT3=
EXTT4=
EXTT5=
EXTT6=
EXTT7=
PLAYORDER=
